<mxfile host="app.diagrams.net" modified="2023-11-16T01:43:34.873Z" agent="Mozilla/5.0 (Windows NT 10.0; Win64; x64) AppleWebKit/537.36 (KHTML, like Gecko) Chrome/119.0.0.0 Safari/537.36" etag="YGEPA0uXwtHGU_fOTKEl" version="22.1.2" type="github">
  <diagram name="Page-1" id="OsOhKR_YYFEa8d_MTunM">
    <mxGraphModel dx="1050" dy="630" grid="1" gridSize="10" guides="1" tooltips="1" connect="1" arrows="1" fold="1" page="1" pageScale="1" pageWidth="827" pageHeight="1169" math="0" shadow="0">
      <root>
        <mxCell id="0" />
        <mxCell id="1" parent="0" />
        <mxCell id="DnS6za8DCt2LCFS3cM5E-13" value="" style="edgeStyle=orthogonalEdgeStyle;rounded=0;orthogonalLoop=1;jettySize=auto;html=1;" parent="1" source="DnS6za8DCt2LCFS3cM5E-1" target="DnS6za8DCt2LCFS3cM5E-5" edge="1">
          <mxGeometry relative="1" as="geometry" />
        </mxCell>
        <mxCell id="DnS6za8DCt2LCFS3cM5E-14" value="Trigger" style="edgeLabel;html=1;align=center;verticalAlign=middle;resizable=0;points=[];" parent="DnS6za8DCt2LCFS3cM5E-13" vertex="1" connectable="0">
          <mxGeometry x="-0.1309" relative="1" as="geometry">
            <mxPoint as="offset" />
          </mxGeometry>
        </mxCell>
        <mxCell id="DnS6za8DCt2LCFS3cM5E-1" value="Git" style="verticalLabelPosition=bottom;html=1;verticalAlign=top;align=center;strokeColor=none;fillColor=#00BEF2;shape=mxgraph.azure.github_code;pointerEvents=1;" parent="1" vertex="1">
          <mxGeometry x="420" y="196" width="50" height="50" as="geometry" />
        </mxCell>
        <mxCell id="DnS6za8DCt2LCFS3cM5E-8" value="" style="edgeStyle=orthogonalEdgeStyle;rounded=0;orthogonalLoop=1;jettySize=auto;html=1;" parent="1" source="DnS6za8DCt2LCFS3cM5E-2" target="DnS6za8DCt2LCFS3cM5E-6" edge="1">
          <mxGeometry relative="1" as="geometry" />
        </mxCell>
        <mxCell id="DnS6za8DCt2LCFS3cM5E-2" value="Code Editor" style="image;aspect=fixed;perimeter=ellipsePerimeter;html=1;align=center;shadow=0;dashed=0;fontColor=#4277BB;labelBackgroundColor=default;fontSize=12;spacingTop=3;image=img/lib/ibm/devops/code_editor.svg;" parent="1" vertex="1">
          <mxGeometry x="70" y="191" width="60" height="60" as="geometry" />
        </mxCell>
        <mxCell id="DnS6za8DCt2LCFS3cM5E-15" value="" style="edgeStyle=orthogonalEdgeStyle;rounded=0;orthogonalLoop=1;jettySize=auto;html=1;" parent="1" source="DnS6za8DCt2LCFS3cM5E-5" target="DnS6za8DCt2LCFS3cM5E-7" edge="1">
          <mxGeometry relative="1" as="geometry" />
        </mxCell>
        <mxCell id="DnS6za8DCt2LCFS3cM5E-16" value="Create Stack" style="edgeLabel;html=1;align=center;verticalAlign=middle;resizable=0;points=[];" parent="DnS6za8DCt2LCFS3cM5E-15" vertex="1" connectable="0">
          <mxGeometry x="-0.1704" relative="1" as="geometry">
            <mxPoint as="offset" />
          </mxGeometry>
        </mxCell>
        <mxCell id="DnS6za8DCt2LCFS3cM5E-5" value="Code Pipeline" style="outlineConnect=0;dashed=0;verticalLabelPosition=bottom;verticalAlign=top;align=center;html=1;shape=mxgraph.aws3.codepipeline;fillColor=#759C3E;gradientColor=none;" parent="1" vertex="1">
          <mxGeometry x="580" y="180.5" width="67.5" height="81" as="geometry" />
        </mxCell>
        <mxCell id="DnS6za8DCt2LCFS3cM5E-9" value="" style="edgeStyle=orthogonalEdgeStyle;rounded=0;orthogonalLoop=1;jettySize=auto;html=1;" parent="1" source="DnS6za8DCt2LCFS3cM5E-6" target="DnS6za8DCt2LCFS3cM5E-1" edge="1">
          <mxGeometry relative="1" as="geometry" />
        </mxCell>
        <mxCell id="DnS6za8DCt2LCFS3cM5E-10" value="Push to GIT" style="edgeLabel;html=1;align=center;verticalAlign=middle;resizable=0;points=[];" parent="DnS6za8DCt2LCFS3cM5E-9" vertex="1" connectable="0">
          <mxGeometry x="-0.4837" y="-2" relative="1" as="geometry">
            <mxPoint x="25" y="-2" as="offset" />
          </mxGeometry>
        </mxCell>
        <mxCell id="DnS6za8DCt2LCFS3cM5E-6" value="CloudFormation Template" style="outlineConnect=0;dashed=0;verticalLabelPosition=bottom;verticalAlign=top;align=center;html=1;shape=mxgraph.aws3.cloudformation;fillColor=#759C3E;gradientColor=none;" parent="1" vertex="1">
          <mxGeometry x="230" y="174.5" width="76.5" height="93" as="geometry" />
        </mxCell>
        <mxCell id="DnS6za8DCt2LCFS3cM5E-21" value="" style="edgeStyle=orthogonalEdgeStyle;rounded=0;orthogonalLoop=1;jettySize=auto;html=1;" parent="1" source="DnS6za8DCt2LCFS3cM5E-7" target="DnS6za8DCt2LCFS3cM5E-17" edge="1">
          <mxGeometry relative="1" as="geometry">
            <mxPoint x="497" y="419.25" as="targetPoint" />
          </mxGeometry>
        </mxCell>
        <mxCell id="DnS6za8DCt2LCFS3cM5E-7" value="AWS Stack" style="outlineConnect=0;dashed=0;verticalLabelPosition=bottom;verticalAlign=top;align=center;html=1;shape=mxgraph.aws3.stack_aws_cloudformation;fillColor=#759C3E;gradientColor=none;" parent="1" vertex="1">
          <mxGeometry x="577" y="390" width="73.5" height="58.5" as="geometry" />
        </mxCell>
        <mxCell id="DnS6za8DCt2LCFS3cM5E-17" value="Environment" style="sketch=0;outlineConnect=0;fontColor=#232F3E;gradientColor=none;fillColor=#DD344C;strokeColor=none;dashed=0;verticalLabelPosition=bottom;verticalAlign=top;align=center;html=1;fontSize=12;fontStyle=0;aspect=fixed;pointerEvents=1;shape=mxgraph.aws4.development_environment;" parent="1" vertex="1">
          <mxGeometry x="370" y="390" width="78" height="71" as="geometry" />
        </mxCell>
      </root>
    </mxGraphModel>
  </diagram>
</mxfile>
